Coordinates
version=1
nRows=24
nColumns=38
inDegrees=no

Units are S.I. units (second, meters, Newtons, ...)
If the header above contains a line with 'inDegrees', this indicates whether rotational values are in degrees (yes) or radians (no).

endheader
time	pelvis_tilt	pelvis_list	pelvis_rotation	pelvis_tx	pelvis_ty	pelvis_tz	hip_flexion_r	hip_adduction_r	hip_rotation_r	knee_angle_r	ankle_angle_r	subtalar_angle_r	mtp_angle_r	hip_flexion_l	hip_adduction_l	hip_rotation_l	knee_angle_l	ankle_angle_l	subtalar_angle_l	mtp_angle_l	lumbar_extension	lumbar_bending	lumbar_rotation	arm_flex_r	arm_add_r	arm_rot_r	elbow_flex_r	pro_sup_r	wrist_flex_r	wrist_dev_r	arm_flex_l	arm_add_l	arm_rot_l	elbow_flex_l	pro_sup_l	wrist_flex_l	wrist_dev_l
0.47	-0.276794	1.36673	-1.3308	0.741208	0.338429	1.02639	-0.431526	0.147555	0.0513839	0	-0.0729812	0	0	0.262211	-0.220309	-0.548105	0.771171	-0.022699	0	0	-0.478783	0.143459	0.264429	-0.345493	-0.396524	0.147556	0.768026	0.8834	0	0	-0.0202374	-0.47124	1.16716	0.506174	0.887469	0	0
0.48	-0.282273	1.36677	-1.33182	0.740417	0.327681	1.02442	-0.446325	0.144415	0.0477281	0	-0.0746201	0	0	0.262273	-0.219316	-0.572242	0.75521	-0.0109216	0	0	-0.478862	0.139077	0.268545	-0.343439	-0.395759	0.149851	0.767656	0.883074	0	0	-0.0285023	-0.467015	1.17044	0.500574	0.886546	0	0
0.49	-0.285145	1.36656	-1.33753	0.739371	0.316769	1.02249	-0.460718	0.139993	0.0432458	0	-0.0749564	0	0	0.260775	-0.217421	-0.593682	0.740781	0.00178619	0	0	-0.478987	0.133116	0.273685	-0.340445	-0.394608	0.153649	0.76596	0.882628	0	0	-0.0365181	-0.462751	1.17405	0.494074	0.884688	0	0
0.5	-0.289185	1.36637	-1.34352	0.738102	0.305812	1.02058	-0.473792	0.135316	0.0391145	0	-0.0745291	0	0	0.259406	-0.215522	-0.609257	0.728746	0.0128384	0	0	-0.479023	0.126302	0.279985	-0.336569	-0.392892	0.158345	0.763026	0.881742	0	0	-0.0441528	-0.459112	1.17692	0.488012	0.882497	0	0
0.51	-0.296954	1.36566	-1.34646	0.736704	0.294746	1.01874	-0.486235	0.13122	0.0365841	0	-0.0744142	0	0	0.258052	-0.214648	-0.618416	0.719617	0.0204218	0	0	-0.479026	0.119705	0.287146	-0.332468	-0.390405	0.162861	0.759229	0.880728	0	0	-0.0518146	-0.45547	1.17968	0.480837	0.883767	0	0
0.52	-0.305698	1.36498	-1.34956	0.73514	0.283577	1.01695	-0.498012	0.126676	0.0355743	0	-0.0744936	0	0	0.256716	-0.214386	-0.622798	0.71336	0.0256006	0	0	-0.47905	0.1126	0.295455	-0.32822	-0.387541	0.167852	0.754925	0.879312	0	0	-0.0586156	-0.451548	1.18122	0.472621	0.884401	0	0
0.53	-0.317461	1.36444	-1.35139	0.733462	0.272388	1.01525	-0.508325	0.121566	0.0360597	0	-0.074799	0	0	0.255718	-0.215345	-0.624353	0.711479	0.0279909	0	0	-0.47914	0.105321	0.305576	-0.323972	-0.384935	0.173489	0.750662	0.87705	0	0	-0.0647699	-0.447177	1.18063	0.463883	0.882564	0	0
0.54	-0.333346	1.36322	-1.35218	0.731625	0.261234	1.01369	-0.517586	0.115561	0.0391934	0	-0.0760064	0	0	0.253364	-0.218522	-0.626344	0.714399	0.0274513	0	0	-0.479876	0.0979395	0.318992	-0.320394	-0.383111	0.179437	0.747291	0.873433	0	0	-0.0704631	-0.441784	1.18019	0.453682	0.881841	0	0
0.55	-0.353519	1.36205	-1.3482	0.729834	0.249829	1.01219	-0.523599	0.11047	0.0413705	0.00796095	-0.0777248	0	0	0.250945	-0.22255	-0.624259	0.721541	0.0238946	0	0	-0.479976	0.0917401	0.332457	-0.317924	-0.381081	0.184516	0.744635	0.868869	0	0	-0.0757388	-0.436856	1.17971	0.444062	0.882275	0	0
0.56	-0.376962	1.36219	-1.34077	0.72808	0.238086	1.01068	-0.523524	0.105621	0.041323	0.0321938	-0.0741819	0	0	0.249115	-0.226711	-0.618156	0.731227	0.016265	0	0	-0.477793	0.0863124	0.347025	-0.316028	-0.379523	0.192479	0.740589	0.857687	0	0	-0.0797888	-0.430443	1.17914	0.431195	0.882106	0	0
0.57	-0.397682	1.36176	-1.33512	0.726366	0.226111	1.00925	-0.522579	0.10073	0.041388	0.058921	-0.068612	0	0	0.245569	-0.229148	-0.60562	0.74152	0.00757947	0	0	-0.476071	0.08066	0.358881	-0.31374	-0.377291	0.199778	0.736894	0.849804	0	0	-0.0849618	-0.426838	1.17414	0.423541	0.876054	0	0
0.58	-0.412215	1.36085	-1.33569	0.724729	0.213909	1.0081	-0.518668	0.0944329	0.0410205	0.0942852	-0.0583407	0	0	0.239447	-0.230384	-0.594296	0.751478	-0.00337823	0	0	-0.47462	0.0739942	0.369867	-0.310808	-0.374886	0.208412	0.731922	0.841966	0	0	-0.089736	-0.423893	1.16922	0.416705	0.867468	0	0
0.59	-0.408988	1.35874	-1.35359	0.723217	0.201555	1.00753	-0.515619	0.0844638	0.0406124	0.132181	-0.0501944	0	0	0.229834	-0.230855	-0.59588	0.761315	-0.0159173	0	0	-0.474299	0.0641575	0.379782	-0.306942	-0.370961	0.216814	0.724074	0.836107	0	0	-0.0923685	-0.420804	1.17124	0.407431	0.868594	0	0
0.6	-0.386701	1.35657	-1.38898	0.721895	0.18916	1.00761	-0.509938	0.071031	0.0384649	0.177964	-0.0392242	0	0	0.220642	-0.231734	-0.612195	0.772615	-0.0335836	0	0	-0.474575	0.0504746	0.386627	-0.300443	-0.365901	0.227711	0.712774	0.829284	0	0	-0.0932932	-0.418223	1.17283	0.39786	0.869237	0	0
0.61	-0.3573	1.3561	-1.42696	0.720895	0.176764	1.00805	-0.500082	0.0580722	0.0375005	0.228106	-0.03133	0	0	0.216659	-0.231213	-0.620044	0.783738	-0.056693	0	0	-0.473087	0.0361681	0.388326	-0.291901	-0.359426	0.23992	0.699022	0.822264	0	0	-0.0930408	-0.417286	1.17229	0.390085	0.865939	0	0
0.62	-0.329721	1.36023	-1.45713	0.72044	0.164316	1.00841	-0.481724	0.0477608	0.0376179	0.284777	-0.0250707	0	0	0.220595	-0.224548	-0.601975	0.789868	-0.07942	0	0	-0.465988	0.0242474	0.38502	-0.282252	-0.352086	0.25432	0.682307	0.812821	0	0	-0.0912419	-0.41686	1.1732	0.382092	0.860174	0	0
0.63	-0.301472	1.36645	-1.48335	0.720646	0.151856	1.00871	-0.457056	0.039079	0.0361346	0.347434	-0.0253731	0	0	0.22726	-0.212208	-0.571328	0.793262	-0.0921408	0	0	-0.456753	0.0152183	0.379883	-0.275812	-0.345179	0.265249	0.668159	0.803551	0	0	-0.0860572	-0.415479	1.18113	0.372184	0.860775	0	0
0.64	-0.269362	1.3748	-1.51053	0.721387	0.139274	1.00889	-0.425791	0.0301092	0.031846	0.41648	-0.0302139	0	0	0.235321	-0.197854	-0.544479	0.797806	-0.0984165	0	0	-0.445235	0.00792885	0.373103	-0.271381	-0.338999	0.275103	0.655014	0.794933	0	0	-0.0791349	-0.415252	1.19007	0.365281	0.859801	0	0
0.65	-0.233315	1.38338	-1.54037	0.722386	0.126554	1.00909	-0.391246	0.0205759	0.027195	0.488024	-0.0435519	0	0	0.241705	-0.184912	-0.529909	0.804212	-0.103797	0	0	-0.433216	0.00183298	0.365804	-0.269012	-0.333565	0.283359	0.643566	0.787368	0	0	-0.0708666	-0.416459	1.20068	0.361627	0.859175	0	0
0.66	-0.196513	1.39168	-1.5706	0.723408	0.113808	1.0093	-0.353741	0.0116179	0.0255899	0.562131	-0.0670428	0	0	0.244778	-0.173948	-0.52475	0.809101	-0.10934	0	0	-0.421175	-0.00311426	0.358931	-0.268777	-0.328854	0.289399	0.634531	0.781271	0	0	-0.0612136	-0.41896	1.21331	0.360695	0.86166	0	0
0.67	-0.159285	1.39936	-1.60092	0.724421	0.101159	1.00953	-0.316122	0.00402679	0.0281288	0.631988	-0.100904	0	0	0.24348	-0.163609	-0.52445	0.81011	-0.112006	0	0	-0.40966	-0.00708782	0.352188	-0.270771	-0.325126	0.292269	0.629248	0.777759	0	0	-0.0504087	-0.42325	1.22596	0.363694	0.867705	0	0
0.68	-0.119583	1.40764	-1.6333	0.725433	0.0887964	1.00967	-0.275941	-0.00177521	0.0348751	0.700212	-0.143827	0	0	0.240466	-0.152242	-0.524777	0.808094	-0.10977	0	0	-0.39755	-0.0106557	0.345069	-0.274297	-0.321952	0.291645	0.627049	0.776716	0	0	-0.0386478	-0.429816	1.23622	0.371502	0.874601	0	0
0.69	-0.0716137	1.41656	-1.67331	0.726376	0.0767334	1.00961	-0.234445	-0.00639449	0.0429605	0.764864	-0.192729	0	0	0.237606	-0.139915	-0.526002	0.805931	-0.103512	0	0	-0.384811	-0.0148682	0.336376	-0.27879	-0.318804	0.287222	0.627785	0.778656	0	0	-0.026647	-0.43931	1.24181	0.384972	0.880339	0	0
0.7	-0.0124969	1.42407	-1.72378	0.727263	0.0648946	1.00949	-0.194021	-0.0105487	0.0505187	0.826459	-0.24171	0	0	0.233801	-0.127828	-0.530772	0.805304	-0.0975132	0	0	-0.373556	-0.0201128	0.325726	-0.284696	-0.316286	0.27939	0.632961	0.78394	0	0	-0.0146544	-0.451537	1.24278	0.40349	0.885468	0	0
